<?xml version="1.0" standalone="no"?>
<!DOCTYPE svg PUBLIC "-//W3C//DTD SVG 20010904//EN"
 "http://www.w3.org/TR/2001/REC-SVG-20010904/DTD/svg10.dtd">
<svg version="1.0" xmlns="http://www.w3.org/2000/svg"
 width="567.000000pt" height="388.000000pt" viewBox="0 0 567.000000 388.000000"
 preserveAspectRatio="xMidYMid meet">

<g transform="translate(0.000000,388.000000) scale(0.100000,-0.100000)"
fill="#000000" stroke="none">
<path d="M4080 3034 c-41 -57 -84 -117 -94 -132 -11 -15 -87 -88 -169 -162
l-149 -135 -73 -140 c-40 -77 -80 -141 -88 -143 -32 -6 -245 68 -326 113 -81
46 -84 47 -101 29 -150 -156 -221 -243 -236 -289 -9 -27 -24 -59 -34 -70 -10
-11 -25 -33 -33 -50 -9 -16 -42 -55 -74 -85 l-58 -55 -75 -3 -75 -3 -68 52
c-38 29 -73 62 -79 74 -26 58 -89 48 -174 -28 -32 -29 -81 -64 -109 -77 -27
-14 -76 -42 -107 -63 l-58 -38 -51 27 c-28 14 -85 52 -125 83 l-73 58 -97 7
c-89 7 -105 11 -173 49 -42 22 -107 63 -144 90 l-69 50 -70 -34 c-51 -25 -82
-48 -116 -89 -26 -30 -75 -84 -109 -120 -35 -36 -78 -88 -96 -115 -32 -50
-114 -112 -217 -166 -25 -13 -73 -41 -107 -62 -58 -36 -70 -39 -160 -44 -93
-6 -98 -7 -130 -40 -19 -18 -38 -33 -44 -33 -6 0 -35 -7 -65 -16 l-54 -15 0
-730 0 -729 2835 0 2835 0 0 979 0 979 -89 109 c-107 131 -98 122 -246 213
-66 41 -142 89 -169 107 -26 18 -53 33 -60 33 -6 0 -36 -20 -66 -45 -30 -25
-60 -45 -66 -45 -10 0 -84 54 -237 172 -59 46 -75 67 -130 166 -62 109 -68
116 -255 292 -105 99 -192 180 -194 180 -2 0 -37 -48 -78 -106z"/>
</g>
</svg>
