<?xml version="1.0" standalone="no"?>
<!DOCTYPE svg PUBLIC "-//W3C//DTD SVG 20010904//EN"
 "http://www.w3.org/TR/2001/REC-SVG-20010904/DTD/svg10.dtd">
<svg version="1.0" xmlns="http://www.w3.org/2000/svg"
 width="920.000000pt" height="388.000000pt" viewBox="0 0 920.000000 388.000000"
 preserveAspectRatio="xMidYMid meet">

<g transform="translate(0.000000,388.000000) scale(0.100000,-0.100000)"
fill="#000000" stroke="none">
<path d="M4080 3034 c-41 -57 -84 -117 -94 -132 -11 -15 -87 -88 -169 -162
l-149 -135 -73 -140 c-40 -77 -80 -141 -88 -143 -32 -6 -245 68 -326 113 -81
46 -84 47 -101 29 -150 -156 -221 -243 -236 -289 -9 -27 -24 -59 -34 -70 -10
-11 -25 -33 -33 -50 -9 -16 -42 -55 -74 -85 -58 -54 -58 -55 -130 -58 l-72 -4
-66 46 c-35 26 -69 55 -75 66 -34 63 -86 67 -157 12 -26 -21 -54 -46 -62 -55
-7 -9 -44 -32 -81 -51 -37 -18 -89 -48 -114 -65 l-45 -32 -52 27 c-28 14 -85
52 -125 83 l-73 58 -97 7 c-89 7 -105 11 -173 49 -42 22 -107 63 -144 90 l-69
50 -70 -34 c-51 -25 -82 -48 -116 -89 -26 -30 -75 -84 -109 -120 -35 -36 -78
-88 -96 -115 -32 -50 -113 -112 -215 -165 -26 -14 -75 -42 -109 -63 -58 -36
-70 -39 -160 -44 -93 -6 -98 -7 -130 -40 -19 -18 -38 -33 -44 -33 -6 0 -35 -7
-65 -16 l-54 -15 0 -730 0 -729 4600 0 4600 0 0 624 0 624 -162 6 c-316 12
-317 12 -420 68 l-93 50 -205 28 c-183 25 -213 32 -283 65 -43 20 -120 49
-172 65 -85 26 -103 36 -187 106 -132 109 -230 207 -301 297 -40 52 -107 116
-196 189 l-135 111 -44 -49 c-24 -27 -68 -80 -97 -119 -61 -81 -153 -169 -246
-237 -35 -26 -98 -74 -139 -106 -120 -92 -139 -102 -216 -106 -38 -3 -84 -8
-102 -12 -27 -5 -60 4 -169 47 l-136 54 -133 150 c-73 83 -168 192 -211 244
-71 86 -90 102 -208 175 -72 45 -153 96 -180 114 -26 17 -53 32 -59 32 -6 0
-36 -20 -66 -45 -30 -25 -60 -45 -66 -45 -10 0 -84 54 -237 172 -59 46 -75 67
-130 166 -62 109 -68 116 -255 292 -105 99 -192 180 -194 180 -2 0 -37 -48
-78 -106z"/>
</g>
</svg>
